<svg width="200" height="200" viewBox="0 0 256 361" xmlns="http://www.w3.org/2000/svg">
        <!-- Main Blue Background -->
        <path fill="#264DE4" d="M255.9.3L232.7 323.8 127.9 360.3 23.2 323.8 0 .3h255.9z"/>
        
        <!-- Lighter Blue Section -->
        <path fill="#2965F1" d="M128 331.9l84.3-26.6 19.2-215.1H128v241.7z"/>
        
        <!-- White Sections - Left Side -->
        <path fill="#EBEBEB" d="M128 148.5H65.8l2 21.2H128v-21.2zM128 85.6H53.5l2.2 21.2H128V85.6zM128 256.5l-.2.1-36.7-11.2-2.3-26.5H65.8l4.6 51.3 57.2 17 .2-.1v-30.6z"/>
        
        <!-- White Sections - Right Side -->
        <path fill="#FFF" d="M127.8 148.5v21.2h58.5l-5.6 62.5-52.9 15.4v30.7l57.2-17 .7-7.9 6.5-73.8.6-7.1H127.8zM127.8 85.6V106.8h72l.5-5.5 1-11.6.9-4H127.8z"/>
    </svg>