<svg width="200" height="200" viewBox="0 0 256 361" xmlns="http://www.w3.org/2000/svg">
        <!-- Main Orange Background -->
        <path fill="#E44D26" d="M255.872.32L232.704 323.84 127.872 360.32 23.168 323.84 0 .32h255.872z"/>
        
        <!-- Lighter Orange Section -->
        <path fill="#F16529" d="M128 331.968l84.288-26.624 19.2-215.168H128v241.792z"/>
        
        <!-- White Sections - Left Side -->
        <path fill="#EBEBEB" d="M128 148.544H65.792l2.048 21.248H128v-21.248zM128 85.632H53.568l2.24 21.248H128V85.632zM128 256.512l-.192.064-36.736-11.2-2.368-26.56H65.792l4.608 51.392 57.216 17.088.192-.064v-30.72z"/>
        
        <!-- White Sections - Right Side -->
        <path fill="#FFF" d="M127.808 148.544v21.248h58.496l-5.568 62.592-52.928 15.424v30.72l57.216-17.088.704-7.936 6.56-73.856.64-7.104H127.808zM127.808 85.632V106.88h72.064l.512-5.568 1.088-11.648.96-4.032h-74.624z"/>
    </svg>
