 <svg xmlns="http://www.w3.org/2000/svg" viewBox="0 0 256 310">
            <path fill="#6DB33F" d="M128 0l111 64c6 3 9 10 9 16v129c0 7-3 13-9 16l-111 64c-6 3-13 3-19 0L9 225c-6-3-9-9-9-16V80c0-6 3-13 9-16L109 0c6-3 13-3 19 0" />
            <path fill="#FFF" d="M116 190l-25-44c-1-2-1-4 0-6l25-44c1-2 3-3 5-3h50c2 0 4 1 5 3l25 44c1 2 1 4 0 6l-25 44c-1 2-3 3-5 3h-50c-2 0-4-1-5-3m55-12l21-36-21-36h-42l-21 36 21 36h42m-21-20c-10 0-18-8-18-18s8-18 18-18 18 8 18 18-8 18-18 18m0-24c-3 0-6 3-6 6s3 6 6 6 6-3 6-6-3-6-6-6" />
</svg>